<svg xmlns="http://www.w3.org/2000/svg" viewBox="0 0 336.2 345.32">
  <g id="Layer_2" data-name="Layer 2">
    <g id="Layer_1-2" data-name="Layer 1">
      <g>
        <path d="M40.47,151h0A91.4,91.4,0,0,0,0,214.82c25.1,8.5,34.93,5.76,38.14,57.69,1.11,19.66,4.87,42.22,15.46,58.54,6.18,9.53,23.26,15,34.59,14.19,26-1.81,36.32-23.73,36.82-37.13.92-25-.52-79-1.07-129.89-.65-59.19-1.35-114.11-1.35-114.11L99.23,97.24C71,142.47,55.2,141.34,40.47,151Z" style="fill: #fff"/>
        <path d="M333.3,176.46a16.2,16.2,0,0,0-1-3,51.52,51.52,0,0,0-12.69-18.6c-13.52-12.4-29.86-16.64-46.35-14.83-13.5,1.49-22-13.48,6.38-30,.13-.07,10.37-6.2,10.51-6.27,29.57-14.39,31.61-39.71,25.77-67a15.38,15.38,0,0,0-1-2.82,51.77,51.77,0,0,0-12.69-18.69C280.76-4.47,252.11-3.6,227.09,9.49L195.79,26.7l-73.2,37.41h0a116.34,116.34,0,0,0,12.14,2c61.14,7,50.58,70.8,50.58,90V244.3c0,30.68,31.84,51,59.67,38.05,13.74-6.37,12.82-5,23.47-10.72l3.66-2.36c12.94-7,19.9-11.21,28.87-16.91,13.57-8.63,21.3-12,27.62-23C338.15,212.72,337.44,195.76,333.3,176.46Z" style="fill: #fff"/>
      </g>
    </g>
  </g>
</svg>
